<svg xmlns="http://www.w3.org/2000/svg" xmlns:xlink="http://www.w3.org/1999/xlink" width="500" zoomAndPan="magnify" viewBox="0 0 375 374.999991" height="500" preserveAspectRatio="xMidYMid meet" version="1.0"><defs><g/><clipPath id="35915d265c"><path d="M 81.386719 134 L 176.636719 134 L 176.636719 155 L 81.386719 155 Z M 81.386719 134 " clip-rule="nonzero"/></clipPath><clipPath id="cd6a6713fe"><path d="M 107 113 L 176.636719 113 L 176.636719 155 L 107 155 Z M 107 113 " clip-rule="nonzero"/></clipPath><clipPath id="76995f9e2e"><path d="M 136 106.050781 L 176.636719 106.050781 L 176.636719 155 L 136 155 Z M 136 106.050781 " clip-rule="nonzero"/></clipPath><clipPath id="1227fdc28f"><path d="M 172 120.054688 L 211 120.054688 L 211 160 L 172 160 Z M 172 120.054688 " clip-rule="nonzero"/></clipPath><clipPath id="f5b7603d0a"><path d="M 223 143 L 262.066406 143 L 262.066406 177 L 223 177 Z M 223 143 " clip-rule="nonzero"/></clipPath><clipPath id="56c80b2d33"><path d="M 143.566406 163 L 215 163 L 215 223.554688 L 143.566406 223.554688 Z M 143.566406 163 " clip-rule="nonzero"/></clipPath></defs><rect x="-37.5" width="450" fill="#ffffff" y="-37.499999" height="449.999989" fill-opacity="1"/><rect x="-37.5" width="450" fill="#ffffff" y="-37.499999" height="449.999989" fill-opacity="1"/><g clip-path="url(#35915d265c)"><path fill="#e03f3e" d="M 81.386719 134.148438 C 108.160156 159.332031 142.140625 126.25 176.632812 154.25 C 151.578125 135.257812 117.550781 169.035156 81.386719 134.148438 " fill-opacity="1" fill-rule="evenodd"/></g><g clip-path="url(#cd6a6713fe)"><path fill="#66bb6a" d="M 107.925781 113.082031 C 121.917969 139.832031 157.386719 123.199219 176.632812 154.25 C 162.3125 132.765625 126.613281 149.90625 107.925781 113.082031 " fill-opacity="1" fill-rule="evenodd"/></g><g clip-path="url(#76995f9e2e)"><path fill="#27c6d9" d="M 136.238281 106.058594 C 139.722656 129.53125 170.402344 126.25 176.632812 154.25 C 171.566406 134.613281 140.605469 138.261719 136.238281 106.058594 " fill-opacity="1" fill-rule="evenodd"/></g><g clip-path="url(#1227fdc28f)"><path stroke-linecap="butt" transform="matrix(0.250416, 0, 0, 0.249578, 138.695575, 108.94889)" fill="none" stroke-linejoin="miter" d="M 181.260146 52.746599 C 199.698247 44.560907 220.101831 50.179766 237.541592 58.772396 C 257.009231 68.945818 276.913645 83.73641 284.900369 106.978768 C 288.472556 116.463528 286.132695 127.529081 279.971063 134.947854 C 275.119752 139.549371 268.240562 138.265955 262.437708 137.624247 C 249.256493 134.478312 241.191774 121.440679 230.943185 112.910655 C 222.067314 104.224118 212.629876 94.817615 200.618592 92.407296 C 189.902031 90.450869 180.589386 98.323533 173.710196 106.509225 C 163.383612 120.689411 156.847601 137.733807 151.762304 154.934717 C 148.439702 169.944428 141.404522 184.249825 142.262471 200.089062 C 141.248531 185.486288 137.504754 171.259147 137.145976 156.593767 C 136.475216 137.65555 138.627887 118.639075 142.902033 100.326914 C 150.748365 80.715686 162.868842 61.307926 181.260146 52.746599 Z M 181.260146 52.746599 " stroke="#000000" stroke-width="0.1" stroke-opacity="1" stroke-miterlimit="10"/></g><path fill="#000000" d="M 184.085938 122.113281 C 188.703125 120.070312 193.8125 121.472656 198.179688 123.617188 C 203.054688 126.15625 208.039062 129.847656 210.039062 135.648438 C 210.933594 138.015625 210.347656 140.777344 208.804688 142.628906 C 207.589844 143.777344 205.867188 143.457031 204.414062 143.296875 C 201.113281 142.511719 199.09375 139.257812 196.527344 137.128906 C 194.304688 134.960938 191.941406 132.613281 188.933594 132.011719 C 186.25 131.523438 183.917969 133.488281 182.195312 135.53125 C 179.609375 139.070312 177.972656 143.324219 176.699219 147.617188 C 175.867188 151.363281 174.105469 154.933594 174.320312 158.886719 C 174.066406 155.242188 173.128906 151.691406 173.039062 148.03125 C 172.871094 143.304688 173.410156 138.558594 174.480469 133.988281 C 176.445312 129.09375 179.480469 124.25 184.085938 122.113281 Z M 184.085938 122.113281 " fill-opacity="1" fill-rule="nonzero"/><path stroke-linecap="butt" transform="matrix(0.250416, 0, 0, 0.249578, 138.695575, 108.94889)" fill="none" stroke-linejoin="miter" d="M 349.449321 65.299037 C 362.802126 63.577381 376.841289 69.399709 385.810754 80.574823 C 391.878792 88.901378 395.965749 99.372178 395.903353 110.20296 C 394.733422 123.381455 388.758978 136.387785 378.822371 143.94742 C 367.107469 153.197409 351.071625 155.122534 337.89041 148.705452 C 318.282379 140.425851 306.879459 112.378507 316.940859 91.202137 C 322.618921 76.787179 335.675342 67.411979 349.449321 65.299037 Z M 349.449321 65.299037 " stroke="#000000" stroke-width="0.1" stroke-opacity="1" stroke-miterlimit="10"/><path fill="#000000" d="M 226.203125 125.246094 C 229.546875 124.816406 233.0625 126.269531 235.308594 129.058594 C 236.828125 131.136719 237.851562 133.75 237.835938 136.453125 C 237.542969 139.742188 236.046875 142.988281 233.558594 144.875 C 230.625 147.183594 226.609375 147.664062 223.308594 146.0625 C 218.398438 143.996094 215.542969 136.996094 218.0625 131.710938 C 219.484375 128.113281 222.753906 125.773438 226.203125 125.246094 Z M 226.203125 125.246094 " fill-opacity="1" fill-rule="nonzero"/><g clip-path="url(#f5b7603d0a)"><path stroke-linecap="butt" transform="matrix(0.250416, 0, 0, 0.249578, 138.695575, 108.94889)" fill="none" stroke-linejoin="miter" d="M 488.468235 141.834479 C 489.263788 141.787524 490.059341 141.756222 490.870492 141.771873 C 490.527313 149.581931 492.352404 157.39199 491.198073 165.170745 C 489.341783 178.537057 484.506072 191.105147 479.249185 203.219346 C 467.737071 231.798838 445.929571 255.401178 419.504746 266.513686 C 407.384268 271.271718 392.986326 270.911735 382.051378 262.788648 C 364.377632 249.954484 350.47886 230.374559 344.395223 207.78956 C 340.542252 195.581453 340.41746 180.931725 347.031466 169.866171 C 350.338468 165.029882 354.815402 159.614491 360.789846 159.974474 C 366.967077 160.616182 372.489148 164.732505 376.217326 170.116594 C 384.999603 182.935106 386.840293 199.603868 394.078261 213.29886 C 400.1463 222.126261 409.942516 232.612712 420.768271 227.447743 C 433.824692 221.312387 444.806438 210.87289 455.413806 200.652513 C 468.844605 187.818349 478.172849 170.680045 485.629205 153.056546 C 487.126715 149.519326 488.171853 145.747334 488.468235 141.834479 Z M 488.468235 141.834479 " stroke="#000000" stroke-width="0.1" stroke-opacity="1" stroke-miterlimit="10"/></g><path fill="#000000" d="M 261.015625 144.347656 C 261.214844 144.335938 261.414062 144.328125 261.617188 144.332031 C 261.53125 146.28125 261.988281 148.230469 261.699219 150.171875 C 261.234375 153.507812 260.023438 156.644531 258.707031 159.667969 C 255.824219 166.800781 250.363281 172.691406 243.746094 175.464844 C 240.710938 176.652344 237.105469 176.5625 234.367188 174.535156 C 229.941406 171.332031 226.460938 166.445312 224.9375 160.808594 C 223.972656 157.761719 223.941406 154.105469 225.597656 151.34375 C 226.425781 150.136719 227.546875 148.785156 229.042969 148.875 C 230.589844 149.035156 231.972656 150.0625 232.90625 151.40625 C 235.105469 154.605469 235.566406 158.765625 237.378906 162.183594 C 238.898438 164.386719 241.351562 167.003906 244.0625 165.714844 C 247.332031 164.183594 250.082031 161.578125 252.738281 159.027344 C 256.101562 155.824219 258.4375 151.546875 260.304688 147.148438 C 260.679688 146.265625 260.941406 145.324219 261.015625 144.347656 Z M 261.015625 144.347656 " fill-opacity="1" fill-rule="nonzero"/><g clip-path="url(#56c80b2d33)"><path stroke-linecap="butt" transform="matrix(0.250416, 0, 0, 0.249578, 138.695575, 108.94889)" fill="none" stroke-linejoin="miter" d="M 162.40087 223.816614 C 170.169207 216.507401 181.634524 217.211715 190.650787 220.858496 C 199.729445 225.146985 209.291675 228.465085 217.559183 234.569139 C 230.428416 243.725219 242.704884 253.992551 253.702228 265.793721 C 266.119088 276.968834 277.6624 289.411713 287.536612 303.38843 C 294.836977 312.935796 302.449323 324.079607 301.872157 337.289405 C 296.490478 356.540651 281.655762 370.611277 266.228282 380.033432 C 245.746703 391.599831 222.925263 396.201348 201.039767 403.291441 C 191.586731 406.687799 181.650123 407.924261 171.822709 409.113769 C 160.669374 409.771129 149.469241 412.32231 138.347104 410.131111 C 145.475879 404.371389 154.117764 401.804556 161.948497 397.531719 C 184.473555 386.732239 205.657092 372.880733 227.604984 360.735231 C 236.886431 355.726777 245.996288 349.356649 251.315571 339.167575 C 251.019188 336.929422 250.754004 334.691269 250.473221 332.468768 C 244.233593 325.44128 236.527652 320.417175 228.572126 316.159989 C 219.306279 324.674361 208.605316 331.1697 200.072625 340.670112 C 176.627222 360.077872 150.717167 375.291051 125.758654 392.069373 C 92.142658 413.073578 60.351753 437.552398 26.111794 457.30449 C 24.115113 458.102712 22.071635 458.728769 19.981359 459.167008 C 33.131375 443.233863 48.434063 429.679734 61.381292 413.527469 C 80.068978 391.771996 98.756664 370.000872 118.255502 349.121878 C 138.846274 327.08468 158.859881 304.390121 177.937544 280.725175 C 169.888424 272.461226 159.499443 264.838984 157.050389 252.145683 C 154.726128 242.551363 156.098846 231.219735 162.40087 223.800962 Z M 162.40087 223.816614 " stroke="#000000" stroke-width="0.1" stroke-opacity="1" stroke-miterlimit="10"/><path fill="#000000" d="M 179.363281 164.808594 C 181.308594 162.984375 184.179688 163.160156 186.4375 164.070312 C 188.710938 165.140625 191.105469 165.96875 193.175781 167.492188 C 196.398438 169.777344 199.472656 172.339844 202.226562 175.285156 C 205.335938 178.074219 208.226562 181.179688 210.699219 184.667969 C 212.527344 187.050781 214.433594 189.832031 214.289062 193.128906 C 212.941406 197.933594 209.226562 201.445312 205.363281 203.796875 C 200.234375 206.683594 194.519531 207.832031 189.039062 209.601562 C 186.671875 210.449219 184.183594 210.757812 181.722656 211.054688 C 178.929688 211.21875 176.125 211.855469 173.339844 211.308594 C 175.125 209.871094 177.289062 209.230469 179.25 208.164062 C 184.890625 205.46875 190.195312 202.011719 195.691406 198.980469 C 198.015625 197.730469 200.296875 196.140625 201.628906 193.597656 C 201.554688 193.039062 201.488281 192.480469 201.417969 191.925781 C 199.855469 190.171875 197.925781 188.917969 195.933594 187.855469 C 193.613281 189.980469 190.933594 191.601562 188.796875 193.972656 C 182.925781 198.816406 176.4375 202.613281 170.1875 206.800781 C 161.769531 212.042969 153.808594 218.152344 145.234375 223.082031 C 144.734375 223.28125 144.222656 223.4375 143.699219 223.546875 C 146.992188 219.570312 150.824219 216.1875 154.066406 212.15625 C 158.746094 206.726562 163.425781 201.292969 168.308594 196.082031 C 173.464844 190.582031 178.476562 184.917969 183.253906 179.011719 C 181.238281 176.949219 178.636719 175.046875 178.023438 171.878906 C 177.441406 169.484375 177.785156 166.65625 179.363281 164.804688 Z M 179.363281 164.808594 " fill-opacity="1" fill-rule="nonzero"/></g><g fill="#000000" fill-opacity="1"><g transform="translate(124.882826, 266.209963)"><g><path d="M 3.09375 0.0625 C 2.570312 0.0625 2.070312 -0.0195312 1.59375 -0.1875 C 1.113281 -0.351562 0.738281 -0.578125 0.46875 -0.859375 L 0.765625 -1.4375 C 1.023438 -1.175781 1.363281 -0.96875 1.78125 -0.8125 C 2.207031 -0.65625 2.644531 -0.578125 3.09375 -0.578125 C 3.726562 -0.578125 4.203125 -0.691406 4.515625 -0.921875 C 4.835938 -1.148438 5 -1.453125 5 -1.828125 C 5 -2.109375 4.910156 -2.332031 4.734375 -2.5 C 4.566406 -2.664062 4.359375 -2.796875 4.109375 -2.890625 C 3.859375 -2.984375 3.507812 -3.082031 3.0625 -3.1875 C 2.53125 -3.320312 2.109375 -3.453125 1.796875 -3.578125 C 1.484375 -3.703125 1.210938 -3.890625 0.984375 -4.140625 C 0.753906 -4.398438 0.640625 -4.75 0.640625 -5.1875 C 0.640625 -5.539062 0.734375 -5.863281 0.921875 -6.15625 C 1.117188 -6.445312 1.410156 -6.679688 1.796875 -6.859375 C 2.179688 -7.035156 2.664062 -7.125 3.25 -7.125 C 3.65625 -7.125 4.050781 -7.066406 4.4375 -6.953125 C 4.820312 -6.847656 5.15625 -6.695312 5.4375 -6.5 L 5.1875 -5.90625 C 4.894531 -6.101562 4.578125 -6.25 4.234375 -6.34375 C 3.898438 -6.4375 3.570312 -6.484375 3.25 -6.484375 C 2.632812 -6.484375 2.171875 -6.363281 1.859375 -6.125 C 1.546875 -5.894531 1.390625 -5.585938 1.390625 -5.203125 C 1.390625 -4.921875 1.472656 -4.691406 1.640625 -4.515625 C 1.804688 -4.347656 2.019531 -4.21875 2.28125 -4.125 C 2.539062 -4.039062 2.890625 -3.941406 3.328125 -3.828125 C 3.847656 -3.703125 4.265625 -3.578125 4.578125 -3.453125 C 4.898438 -3.328125 5.171875 -3.140625 5.390625 -2.890625 C 5.617188 -2.640625 5.734375 -2.300781 5.734375 -1.875 C 5.734375 -1.507812 5.632812 -1.179688 5.4375 -0.890625 C 5.25 -0.597656 4.957031 -0.363281 4.5625 -0.1875 C 4.164062 -0.0195312 3.675781 0.0625 3.09375 0.0625 Z M 3.09375 0.0625 "/></g></g></g><g fill="#000000" fill-opacity="1"><g transform="translate(135.580905, 266.209963)"><g><path d="M 4.234375 0.0625 C 3.535156 0.0625 2.898438 -0.09375 2.328125 -0.40625 C 1.765625 -0.71875 1.320312 -1.144531 1 -1.6875 C 0.6875 -2.238281 0.53125 -2.851562 0.53125 -3.53125 C 0.53125 -4.207031 0.6875 -4.816406 1 -5.359375 C 1.320312 -5.910156 1.765625 -6.34375 2.328125 -6.65625 C 2.898438 -6.96875 3.535156 -7.125 4.234375 -7.125 C 4.941406 -7.125 5.570312 -6.96875 6.125 -6.65625 C 6.6875 -6.351562 7.128906 -5.925781 7.453125 -5.375 C 7.773438 -4.820312 7.9375 -4.207031 7.9375 -3.53125 C 7.9375 -2.851562 7.773438 -2.238281 7.453125 -1.6875 C 7.128906 -1.144531 6.6875 -0.71875 6.125 -0.40625 C 5.570312 -0.09375 4.941406 0.0625 4.234375 0.0625 Z M 4.234375 -0.609375 C 4.796875 -0.609375 5.300781 -0.734375 5.75 -0.984375 C 6.195312 -1.234375 6.550781 -1.582031 6.8125 -2.03125 C 7.070312 -2.476562 7.203125 -2.976562 7.203125 -3.53125 C 7.203125 -4.082031 7.070312 -4.582031 6.8125 -5.03125 C 6.550781 -5.476562 6.195312 -5.828125 5.75 -6.078125 C 5.300781 -6.328125 4.796875 -6.453125 4.234375 -6.453125 C 3.679688 -6.453125 3.175781 -6.328125 2.71875 -6.078125 C 2.257812 -5.828125 1.898438 -5.476562 1.640625 -5.03125 C 1.390625 -4.582031 1.265625 -4.082031 1.265625 -3.53125 C 1.265625 -2.976562 1.390625 -2.476562 1.640625 -2.03125 C 1.898438 -1.582031 2.257812 -1.234375 2.71875 -0.984375 C 3.175781 -0.734375 3.679688 -0.609375 4.234375 -0.609375 Z M 4.234375 -0.609375 "/></g></g></g><g fill="#000000" fill-opacity="1"><g transform="translate(148.539089, 266.209963)"><g><path d="M 4.21875 0.0625 C 3.519531 0.0625 2.890625 -0.09375 2.328125 -0.40625 C 1.765625 -0.71875 1.320312 -1.144531 1 -1.6875 C 0.6875 -2.238281 0.53125 -2.851562 0.53125 -3.53125 C 0.53125 -4.207031 0.6875 -4.820312 1 -5.375 C 1.320312 -5.925781 1.765625 -6.351562 2.328125 -6.65625 C 2.890625 -6.96875 3.523438 -7.125 4.234375 -7.125 C 4.753906 -7.125 5.234375 -7.035156 5.671875 -6.859375 C 6.117188 -6.679688 6.5 -6.425781 6.8125 -6.09375 L 6.34375 -5.625 C 5.789062 -6.175781 5.09375 -6.453125 4.25 -6.453125 C 3.6875 -6.453125 3.175781 -6.320312 2.71875 -6.0625 C 2.257812 -5.8125 1.898438 -5.460938 1.640625 -5.015625 C 1.390625 -4.578125 1.265625 -4.082031 1.265625 -3.53125 C 1.265625 -2.976562 1.390625 -2.476562 1.640625 -2.03125 C 1.898438 -1.59375 2.257812 -1.242188 2.71875 -0.984375 C 3.175781 -0.734375 3.6875 -0.609375 4.25 -0.609375 C 5.09375 -0.609375 5.789062 -0.890625 6.34375 -1.453125 L 6.8125 -0.984375 C 6.5 -0.640625 6.117188 -0.378906 5.671875 -0.203125 C 5.222656 -0.0234375 4.738281 0.0625 4.21875 0.0625 Z M 4.21875 0.0625 "/></g></g></g><g fill="#000000" fill-opacity="1"><g transform="translate(160.2865, 266.209963)"><g><path d="M 1.15625 -7.0625 L 1.890625 -7.0625 L 1.890625 0 L 1.15625 0 Z M 1.15625 -7.0625 "/></g></g></g><g fill="#000000" fill-opacity="1"><g transform="translate(167.826479, 266.209963)"><g><path d="M 5.578125 -1.890625 L 1.640625 -1.890625 L 0.796875 0 L 0.015625 0 L 3.25 -7.0625 L 3.984375 -7.0625 L 7.21875 0 L 6.421875 0 Z M 5.3125 -2.5 L 3.609375 -6.28125 L 1.921875 -2.5 Z M 5.3125 -2.5 "/></g></g></g><g fill="#000000" fill-opacity="1"><g transform="translate(179.553715, 266.209963)"><g><path d="M 1.15625 -7.0625 L 1.890625 -7.0625 L 1.890625 -0.640625 L 5.859375 -0.640625 L 5.859375 0 L 1.15625 0 Z M 1.15625 -7.0625 "/></g></g></g><g fill="#000000" fill-opacity="1"><g transform="translate(189.989461, 266.209963)"><g/></g></g><g fill="#000000" fill-opacity="1"><g transform="translate(197.125853, 266.209963)"><g><path d="M 3.09375 0.0625 C 2.570312 0.0625 2.070312 -0.0195312 1.59375 -0.1875 C 1.113281 -0.351562 0.738281 -0.578125 0.46875 -0.859375 L 0.765625 -1.4375 C 1.023438 -1.175781 1.363281 -0.96875 1.78125 -0.8125 C 2.207031 -0.65625 2.644531 -0.578125 3.09375 -0.578125 C 3.726562 -0.578125 4.203125 -0.691406 4.515625 -0.921875 C 4.835938 -1.148438 5 -1.453125 5 -1.828125 C 5 -2.109375 4.910156 -2.332031 4.734375 -2.5 C 4.566406 -2.664062 4.359375 -2.796875 4.109375 -2.890625 C 3.859375 -2.984375 3.507812 -3.082031 3.0625 -3.1875 C 2.53125 -3.320312 2.109375 -3.453125 1.796875 -3.578125 C 1.484375 -3.703125 1.210938 -3.890625 0.984375 -4.140625 C 0.753906 -4.398438 0.640625 -4.75 0.640625 -5.1875 C 0.640625 -5.539062 0.734375 -5.863281 0.921875 -6.15625 C 1.117188 -6.445312 1.410156 -6.679688 1.796875 -6.859375 C 2.179688 -7.035156 2.664062 -7.125 3.25 -7.125 C 3.65625 -7.125 4.050781 -7.066406 4.4375 -6.953125 C 4.820312 -6.847656 5.15625 -6.695312 5.4375 -6.5 L 5.1875 -5.90625 C 4.894531 -6.101562 4.578125 -6.25 4.234375 -6.34375 C 3.898438 -6.4375 3.570312 -6.484375 3.25 -6.484375 C 2.632812 -6.484375 2.171875 -6.363281 1.859375 -6.125 C 1.546875 -5.894531 1.390625 -5.585938 1.390625 -5.203125 C 1.390625 -4.921875 1.472656 -4.691406 1.640625 -4.515625 C 1.804688 -4.347656 2.019531 -4.21875 2.28125 -4.125 C 2.539062 -4.039062 2.890625 -3.941406 3.328125 -3.828125 C 3.847656 -3.703125 4.265625 -3.578125 4.578125 -3.453125 C 4.898438 -3.328125 5.171875 -3.140625 5.390625 -2.890625 C 5.617188 -2.640625 5.734375 -2.300781 5.734375 -1.875 C 5.734375 -1.507812 5.632812 -1.179688 5.4375 -0.890625 C 5.25 -0.597656 4.957031 -0.363281 4.5625 -0.1875 C 4.164062 -0.0195312 3.675781 0.0625 3.09375 0.0625 Z M 3.09375 0.0625 "/></g></g></g><g fill="#000000" fill-opacity="1"><g transform="translate(207.823932, 266.209963)"><g><path d="M 3.796875 -7.0625 C 4.691406 -7.0625 5.394531 -6.847656 5.90625 -6.421875 C 6.425781 -5.992188 6.6875 -5.398438 6.6875 -4.640625 C 6.6875 -3.890625 6.425781 -3.300781 5.90625 -2.875 C 5.394531 -2.445312 4.691406 -2.234375 3.796875 -2.234375 L 1.890625 -2.234375 L 1.890625 0 L 1.15625 0 L 1.15625 -7.0625 Z M 3.78125 -2.890625 C 4.476562 -2.890625 5.007812 -3.039062 5.375 -3.34375 C 5.75 -3.65625 5.9375 -4.085938 5.9375 -4.640625 C 5.9375 -5.210938 5.75 -5.648438 5.375 -5.953125 C 5.007812 -6.265625 4.476562 -6.421875 3.78125 -6.421875 L 1.890625 -6.421875 L 1.890625 -2.890625 Z M 3.78125 -2.890625 "/></g></g></g><g fill="#000000" fill-opacity="1"><g transform="translate(219.56125, 266.209963)"><g><path d="M 4.234375 0.0625 C 3.535156 0.0625 2.898438 -0.09375 2.328125 -0.40625 C 1.765625 -0.71875 1.320312 -1.144531 1 -1.6875 C 0.6875 -2.238281 0.53125 -2.851562 0.53125 -3.53125 C 0.53125 -4.207031 0.6875 -4.816406 1 -5.359375 C 1.320312 -5.910156 1.765625 -6.34375 2.328125 -6.65625 C 2.898438 -6.96875 3.535156 -7.125 4.234375 -7.125 C 4.941406 -7.125 5.570312 -6.96875 6.125 -6.65625 C 6.6875 -6.351562 7.128906 -5.925781 7.453125 -5.375 C 7.773438 -4.820312 7.9375 -4.207031 7.9375 -3.53125 C 7.9375 -2.851562 7.773438 -2.238281 7.453125 -1.6875 C 7.128906 -1.144531 6.6875 -0.71875 6.125 -0.40625 C 5.570312 -0.09375 4.941406 0.0625 4.234375 0.0625 Z M 4.234375 -0.609375 C 4.796875 -0.609375 5.300781 -0.734375 5.75 -0.984375 C 6.195312 -1.234375 6.550781 -1.582031 6.8125 -2.03125 C 7.070312 -2.476562 7.203125 -2.976562 7.203125 -3.53125 C 7.203125 -4.082031 7.070312 -4.582031 6.8125 -5.03125 C 6.550781 -5.476562 6.195312 -5.828125 5.75 -6.078125 C 5.300781 -6.328125 4.796875 -6.453125 4.234375 -6.453125 C 3.679688 -6.453125 3.175781 -6.328125 2.71875 -6.078125 C 2.257812 -5.828125 1.898438 -5.476562 1.640625 -5.03125 C 1.390625 -4.582031 1.265625 -4.082031 1.265625 -3.53125 C 1.265625 -2.976562 1.390625 -2.476562 1.640625 -2.03125 C 1.898438 -1.582031 2.257812 -1.234375 2.71875 -0.984375 C 3.175781 -0.734375 3.679688 -0.609375 4.234375 -0.609375 Z M 4.234375 -0.609375 "/></g></g></g><g fill="#000000" fill-opacity="1"><g transform="translate(232.519434, 266.209963)"><g><path d="M 5.96875 0 L 4.359375 -2.265625 C 4.179688 -2.242188 3.992188 -2.234375 3.796875 -2.234375 L 1.890625 -2.234375 L 1.890625 0 L 1.15625 0 L 1.15625 -7.0625 L 3.796875 -7.0625 C 4.691406 -7.0625 5.394531 -6.847656 5.90625 -6.421875 C 6.425781 -5.992188 6.6875 -5.398438 6.6875 -4.640625 C 6.6875 -4.085938 6.546875 -3.617188 6.265625 -3.234375 C 5.984375 -2.859375 5.582031 -2.585938 5.0625 -2.421875 L 6.796875 0 Z M 3.78125 -2.875 C 4.476562 -2.875 5.007812 -3.03125 5.375 -3.34375 C 5.75 -3.65625 5.9375 -4.085938 5.9375 -4.640625 C 5.9375 -5.210938 5.75 -5.648438 5.375 -5.953125 C 5.007812 -6.265625 4.476562 -6.421875 3.78125 -6.421875 L 1.890625 -6.421875 L 1.890625 -2.875 Z M 3.78125 -2.875 "/></g></g></g><g fill="#000000" fill-opacity="1"><g transform="translate(244.307202, 266.209963)"><g><path d="M 2.515625 -6.421875 L 0.046875 -6.421875 L 0.046875 -7.0625 L 5.75 -7.0625 L 5.75 -6.421875 L 3.265625 -6.421875 L 3.265625 0 L 2.515625 0 Z M 2.515625 -6.421875 "/></g></g></g><g fill="#000000" fill-opacity="1"><g transform="translate(102.182681, 250.092226)"><g><path d="M 13.890625 0 L 13.125 -2.515625 L 6.875 -2.515625 L 6.125 0 L 0.265625 0 L 6.78125 -17.859375 L 13.4375 -17.859375 L 19.953125 0 Z M 8.078125 -6.515625 L 11.9375 -6.515625 L 10.0625 -12.875 L 9.96875 -12.875 Z M 8.078125 -6.515625 "/></g></g></g><g fill="#000000" fill-opacity="1"><g transform="translate(126.778864, 250.092226)"><g><path d="M 18.875 -12.375 C 18.875 -11.289062 18.578125 -10.304688 17.984375 -9.421875 C 17.398438 -8.535156 16.546875 -7.882812 15.421875 -7.46875 L 19.390625 0 L 12.953125 0 L 9.78125 -6.515625 L 7.65625 -6.515625 L 7.65625 0 L 1.921875 0 L 1.921875 -17.859375 L 12.84375 -17.859375 C 14.125 -17.859375 15.21875 -17.609375 16.125 -17.109375 C 17.039062 -16.617188 17.726562 -15.953125 18.1875 -15.109375 C 18.644531 -14.273438 18.875 -13.363281 18.875 -12.375 Z M 13.03125 -12.140625 C 13.03125 -12.609375 12.875 -13 12.5625 -13.3125 C 12.25 -13.625 11.867188 -13.78125 11.421875 -13.78125 L 7.65625 -13.78125 L 7.65625 -10.484375 L 11.421875 -10.484375 C 11.867188 -10.484375 12.25 -10.640625 12.5625 -10.953125 C 12.875 -11.273438 13.03125 -11.671875 13.03125 -12.140625 Z M 13.03125 -12.140625 "/></g></g></g><g fill="#000000" fill-opacity="1"><g transform="translate(151.375047, 250.092226)"><g><path d="M 10.796875 -18.171875 C 13.878906 -18.171875 16.257812 -17.378906 17.9375 -15.796875 C 19.613281 -14.222656 20.453125 -11.929688 20.453125 -8.921875 C 20.453125 -5.910156 19.613281 -3.617188 17.9375 -2.046875 C 16.257812 -0.472656 13.878906 0.3125 10.796875 0.3125 C 7.710938 0.3125 5.335938 -0.46875 3.671875 -2.03125 C 2.003906 -3.601562 1.171875 -5.898438 1.171875 -8.921875 C 1.171875 -11.953125 2.003906 -14.25 3.671875 -15.8125 C 5.335938 -17.382812 7.710938 -18.171875 10.796875 -18.171875 Z M 10.796875 -13.890625 C 9.566406 -13.890625 8.628906 -13.515625 7.984375 -12.765625 C 7.347656 -12.023438 7.03125 -11.023438 7.03125 -9.765625 L 7.03125 -8.09375 C 7.03125 -6.832031 7.347656 -5.828125 7.984375 -5.078125 C 8.628906 -4.335938 9.566406 -3.96875 10.796875 -3.96875 C 12.023438 -3.96875 12.960938 -4.335938 13.609375 -5.078125 C 14.253906 -5.828125 14.578125 -6.832031 14.578125 -8.09375 L 14.578125 -9.765625 C 14.578125 -11.023438 14.253906 -12.023438 13.609375 -12.765625 C 12.960938 -13.515625 12.023438 -13.890625 10.796875 -13.890625 Z M 10.796875 -13.890625 "/></g></g></g><g fill="#000000" fill-opacity="1"><g transform="translate(177.398148, 250.092226)"><g><path d="M 15.34375 0 L 13.03125 -10.875 L 12.921875 -10.875 L 10.609375 0 L 4.3125 0 L 0.125 -17.859375 L 6.09375 -17.859375 L 8.15625 -7.734375 L 8.25 -7.734375 L 10.28125 -17.859375 L 15.9375 -17.859375 L 18.09375 -7.734375 L 18.1875 -7.734375 L 20.109375 -17.859375 L 25.828125 -17.859375 L 21.640625 0 Z M 15.34375 0 "/></g></g></g><g fill="#000000" fill-opacity="1"><g transform="translate(207.753888, 250.092226)"><g><path d="M 15.34375 0 L 13.03125 -10.875 L 12.921875 -10.875 L 10.609375 0 L 4.3125 0 L 0.125 -17.859375 L 6.09375 -17.859375 L 8.15625 -7.734375 L 8.25 -7.734375 L 10.28125 -17.859375 L 15.9375 -17.859375 L 18.09375 -7.734375 L 18.1875 -7.734375 L 20.109375 -17.859375 L 25.828125 -17.859375 L 21.640625 0 Z M 15.34375 0 "/></g></g></g><g fill="#000000" fill-opacity="1"><g transform="translate(238.109628, 250.092226)"><g><path d="M 13.890625 0 L 13.125 -2.515625 L 6.875 -2.515625 L 6.125 0 L 0.265625 0 L 6.78125 -17.859375 L 13.4375 -17.859375 L 19.953125 0 Z M 8.078125 -6.515625 L 11.9375 -6.515625 L 10.0625 -12.875 L 9.96875 -12.875 Z M 8.078125 -6.515625 "/></g></g></g><g fill="#000000" fill-opacity="1"><g transform="translate(262.705807, 250.092226)"><g><path d="M 2.1875 0 L 2.1875 -17.859375 L 7.921875 -17.859375 L 7.921875 0 Z M 2.1875 0 "/></g></g></g></svg>